<svg width="136" height="124" viewBox="0 0 136 124" fill="none" xmlns="http://www.w3.org/2000/svg">
<g id="Frame" clip-path="url(#clip0_483_241)">
<path id="Vector" d="M62.0669 26.0723H73.3336" stroke="#FFA88E" stroke-width="2" stroke-linecap="round" stroke-linejoin="round"/>
<path id="Vector_2" d="M107.133 61.9668C103.376 89.3132 93.9907 102.989 78.9666 102.989H56.4333C41.4092 102.989 32.024 89.3132 28.2666 61.9668" stroke="#FFA88E" stroke-width="2" stroke-linecap="round" stroke-linejoin="round"/>
<path id="Vector_3" d="M62.0669 82.4785C62.0669 85.8987 63.9428 87.6063 67.7002 87.6063C71.4577 87.6063 73.3336 85.8987 73.3336 82.4785H62.0669Z" stroke="#FFA88E" stroke-width="2" stroke-linecap="round" stroke-linejoin="round"/>
<path id="Vector_4" d="M67.7002 92.7334V102.989" stroke="#FFA88E" stroke-width="2" stroke-linecap="round" stroke-linejoin="round"/>
<path id="Vector_5" d="M56.4336 56.8389V56.8889" stroke="#FFA88E" stroke-width="2" stroke-linecap="round" stroke-linejoin="round"/>
<path id="Vector_6" d="M78.9668 56.8389V56.8889" stroke="#FFA88E" stroke-width="2" stroke-linecap="round" stroke-linejoin="round"/>
<path id="Vector_7" d="M28.2669 20.9443L62.0669 25.9183L26.9262 60.2129C25.939 61.2228 24.561 61.846 23.0805 61.9521C21.6 62.0582 20.1318 61.6389 18.9832 60.782C18.2042 60.2051 17.6186 59.4408 17.293 58.5761C16.9674 57.7113 16.9147 56.7808 17.1411 55.8901L28.2669 20.9443Z" stroke="#FFA88E" stroke-width="2" stroke-linecap="round" stroke-linejoin="round"/>
<path id="Vector_8" d="M107.133 20.9443L73.3335 25.9183L108.474 60.2129C110.491 62.305 114.046 62.5614 116.417 60.782C117.196 60.2051 117.782 59.4408 118.107 58.5761C118.433 57.7113 118.486 56.7808 118.259 55.8901L107.133 20.9443Z" stroke="#FFA88E" stroke-width="2" stroke-linecap="round" stroke-linejoin="round"/>
</g>
<defs>
<clipPath id="clip0_483_241">
<rect width="135.2" height="123.067" fill="white" transform="translate(0.100098 0.433594)"/>
</clipPath>
</defs>
</svg>
