<svg width="52" height="52" viewBox="0 0 52 52" fill="none" xmlns="http://www.w3.org/2000/svg">
<path d="M24.3495 10.2678C24.3923 10.267 24.435 10.2662 24.4791 10.2653C24.8651 10.2633 24.8651 10.2633 25.0249 10.3999C25.0948 10.4801 25.1408 10.5472 25.1797 10.6462C25.2256 10.7365 25.2256 10.7365 25.3448 10.7833C25.4866 10.8542 25.5477 10.9185 25.6342 11.0499C25.6476 11.1035 25.661 11.1571 25.6749 11.2124C25.8894 11.2124 26.1039 11.2124 26.3249 11.2124C26.3517 11.1319 26.3785 11.0515 26.4061 10.9686C26.5117 10.8676 26.6039 10.7852 26.7387 10.7274C26.8519 10.661 26.8796 10.5569 26.9342 10.4405C27.0171 10.3403 27.0508 10.3204 27.178 10.278C28.8565 10.1708 28.8565 10.1708 29.3658 10.5827C29.6457 10.7784 30.1146 10.758 30.4456 10.7895C30.7252 10.8216 30.964 10.8916 31.1999 11.0499C31.2267 11.0901 31.2535 11.1303 31.2811 11.1717C31.3713 11.2053 31.3713 11.2053 31.4774 11.2238C31.5166 11.232 31.5557 11.2402 31.596 11.2487C31.6576 11.2609 31.6576 11.2609 31.7204 11.2733C32.03 11.3353 32.2522 11.3838 32.4919 11.5991C32.6314 11.7181 32.777 11.7619 32.9518 11.809C33.3394 11.9189 33.3394 11.9189 33.4342 11.9842C33.4589 12.0333 33.4589 12.0333 33.4841 12.0833C33.5903 12.2367 33.7221 12.2586 33.8963 12.3092C34.1339 12.379 34.2842 12.4389 34.4499 12.6342C34.5715 12.7768 34.6751 12.8195 34.8512 12.8796C34.979 12.9375 35.066 13.0282 35.1675 13.1236C35.2809 13.2185 35.4011 13.2886 35.529 13.3629C35.7308 13.4827 35.866 13.5991 36.0095 13.7827C36.0822 13.8608 36.142 13.891 36.2399 13.9317C36.4212 14.0093 36.4815 14.1309 36.58 14.2959C36.6673 14.4128 36.7608 14.4452 36.8926 14.4995C37.0112 14.5683 37.053 14.672 37.117 14.7897C37.1808 14.8817 37.2391 14.9171 37.3368 14.9702C37.5014 15.0609 37.5428 15.1502 37.6137 15.3195C37.6696 15.4144 37.7229 15.4439 37.8192 15.4958C37.9937 15.5912 38.0474 15.6992 38.1331 15.8742C38.1928 15.9746 38.2532 16.0283 38.3448 16.1001C38.5253 16.2457 38.6168 16.4171 38.7266 16.6188C38.7918 16.729 38.8586 16.8127 38.9465 16.9049C39.1046 17.0744 39.2436 17.3116 39.2436 17.5499C39.2746 17.5608 39.3056 17.5716 39.3376 17.5829C39.4677 17.6404 39.5433 17.695 39.601 17.827C39.609 17.854 39.617 17.881 39.6253 17.9088C39.6348 17.9387 39.6443 17.9685 39.6541 17.9993C39.6731 18.0615 39.6919 18.1238 39.7102 18.1862C39.7614 18.3449 39.8029 18.45 39.9368 18.5537C40.0656 18.6541 40.0974 18.7073 40.145 18.86C40.1578 18.899 40.1706 18.9379 40.1839 18.9781C40.2055 19.0499 40.2266 19.1218 40.247 19.1939C40.2961 19.3597 40.3426 19.4723 40.4624 19.5989C40.6458 19.7973 40.6849 20.0321 40.7318 20.2924C40.7975 20.6481 40.7975 20.6481 41.0108 20.9272C41.2167 21.1832 41.222 21.6146 41.2571 21.9297C41.3028 22.3691 41.3028 22.3691 41.478 22.7702C41.7617 23.2223 41.7294 23.8719 41.7344 24.3876C41.7355 24.4475 41.7355 24.4475 41.7366 24.5087C41.7363 24.8634 41.7363 24.8634 41.5999 25.0249C41.4983 25.0934 41.4983 25.0934 41.3967 25.1467C41.2674 25.2179 41.2674 25.2179 41.219 25.3448C41.1261 25.5235 41.0183 25.6114 40.828 25.6749C40.828 25.8894 40.828 26.1039 40.828 26.3249C40.9084 26.3651 40.9889 26.4053 41.0717 26.4467C41.1578 26.54 41.2215 26.6188 41.2698 26.7362C41.3384 26.8506 41.4407 26.8786 41.5592 26.9342C41.6594 27.0171 41.6793 27.0508 41.7217 27.178C41.7659 27.8408 41.7815 28.6418 41.478 29.2499C41.4574 29.2729 41.4368 29.2958 41.4156 29.3195C41.3226 29.4646 41.3161 29.6193 41.2952 29.7881C41.2851 29.8613 41.2749 29.9344 41.2647 30.0075C41.2597 30.0439 41.2547 30.0804 41.2495 30.118C41.2272 30.2744 41.2013 30.43 41.1733 30.5854C41.1601 30.6607 41.1601 30.6607 41.1466 30.7374C41.102 30.9164 41.0523 31.067 40.908 31.1875C40.777 31.3408 40.7632 31.5284 40.7264 31.7229C40.665 32.0455 40.5989 32.2638 40.3771 32.5153C40.2637 32.6716 40.2265 32.8451 40.1789 33.0292C40.1208 33.2354 40.0429 33.3606 39.8936 33.5155C39.8668 33.5289 39.84 33.5423 39.8124 33.5561C39.7591 33.6894 39.7117 33.8234 39.6656 33.9592C39.603 34.1356 39.5392 34.2726 39.4061 34.4092C39.3779 34.4216 39.3497 34.4341 39.3206 34.4468C39.2002 34.5151 39.1904 34.6131 39.1497 34.7419C39.0725 34.9574 39.0013 35.0787 38.8304 35.2265C38.7037 35.3569 38.6279 35.5181 38.5438 35.678C38.4655 35.8003 38.3884 35.8718 38.2686 35.953C38.2418 35.953 38.215 35.953 38.1874 35.953C38.1773 35.9806 38.1673 36.0083 38.1569 36.0368C37.9927 36.4227 37.9927 36.4227 37.7811 36.5395C37.6498 36.6128 37.5971 36.6644 37.5399 36.8036C37.4625 36.9895 37.3414 37.0533 37.1728 37.1541C37.079 37.2106 37.079 37.2106 37.0296 37.3368C36.9597 37.4736 36.9244 37.4871 36.7909 37.5526C36.6094 37.6429 36.5478 37.7339 36.4533 37.9084C36.3371 38.0733 36.1373 38.1259 35.953 38.1874C35.9413 38.2184 35.9295 38.2494 35.9174 38.2813C35.8334 38.4821 35.6543 38.5621 35.4731 38.6672C35.3335 38.7487 35.2171 38.8329 35.0999 38.944C34.9281 39.1021 34.6902 39.2436 34.4499 39.2436C34.4465 39.2671 34.4432 39.2905 34.4397 39.3147C34.3982 39.4391 34.3487 39.4848 34.2467 39.5686C34.1059 39.6288 33.9585 39.6696 33.8115 39.7122C33.6532 39.7626 33.5495 39.8032 33.4461 39.9366C33.3457 40.0655 33.2926 40.0974 33.1397 40.145C33.1007 40.1578 33.0618 40.1706 33.0216 40.1839C32.9499 40.2055 32.8779 40.2266 32.8058 40.247C32.6401 40.2961 32.5274 40.3425 32.4008 40.4624C32.2024 40.6458 31.9676 40.6849 31.7074 40.7318C31.3517 40.7975 31.3517 40.7975 31.0725 41.0108C30.8166 41.2167 30.3851 41.222 30.07 41.2571C29.7441 41.294 29.4695 41.3383 29.1788 41.4983C28.7084 41.7374 28.1473 41.7292 27.6299 41.7319C27.5891 41.7327 27.5482 41.7336 27.5062 41.7344C27.1373 41.7364 27.1373 41.7364 26.9749 41.5999C26.905 41.5196 26.859 41.4525 26.82 41.3536C26.7741 41.2632 26.7741 41.2632 26.6549 41.2165C26.4748 41.1264 26.3882 41.0179 26.3249 40.828C26.1104 40.828 25.8959 40.828 25.6749 40.828C25.6346 40.9084 25.5944 40.9889 25.553 41.0717C25.4598 41.1578 25.3809 41.2215 25.2635 41.2698C25.1491 41.3384 25.1211 41.4407 25.0655 41.5592C24.9826 41.6594 24.9489 41.6793 24.8217 41.7217C24.1764 41.765 23.2252 41.8238 22.6712 41.4348C22.3639 41.2405 21.928 41.2443 21.5732 41.2031C21.0145 41.1323 21.0145 41.1323 20.8276 40.9284C20.665 40.7786 20.4876 40.7627 20.2743 40.7239C19.9521 40.6637 19.736 40.5987 19.4848 40.3776C19.3474 40.2776 19.2128 40.2384 19.0504 40.1932C18.6605 40.0809 18.6605 40.0809 18.5655 40.0155C18.5486 39.9829 18.5318 39.9502 18.5144 39.9166C18.415 39.7702 18.2856 39.7391 18.1237 39.6879C17.917 39.6207 17.7498 39.5616 17.5905 39.4061C17.5781 39.3779 17.5657 39.3497 17.5529 39.3206C17.4846 39.2002 17.3866 39.1904 17.2579 39.1497C17.042 39.0724 16.9209 39.0009 16.7727 38.8299C16.6759 38.7359 16.5715 38.6808 16.453 38.6165C16.2543 38.5067 16.1312 38.3962 15.9921 38.2193C15.8984 38.1182 15.7944 38.0739 15.6698 38.019C15.5379 37.9535 15.4908 37.8486 15.4297 37.7202C15.3511 37.6117 15.3173 37.5955 15.1987 37.545C15.0249 37.4672 14.9715 37.3733 14.8827 37.21C14.8189 37.1181 14.7607 37.0826 14.6629 37.0295C14.4983 36.9388 14.4569 36.8495 14.386 36.6803C14.3301 36.5853 14.2769 36.5558 14.1805 36.504C14.006 36.4085 13.9523 36.3005 13.8666 36.1255C13.8069 36.0251 13.7465 35.9714 13.6549 35.8997C13.4751 35.7545 13.385 35.5847 13.276 35.3834C13.2041 35.2642 13.1277 35.1759 13.0303 35.077C12.8537 34.8908 12.8008 34.6987 12.7561 34.4499C12.7335 34.4482 12.7109 34.4465 12.6876 34.4448C12.5459 34.3912 12.4693 34.29 12.3905 34.1655C12.3363 34.0379 12.3026 33.9054 12.2675 33.7715C12.2115 33.5796 12.1541 33.5294 11.9842 33.4342C11.8587 33.2318 11.8036 33.0059 11.7433 32.7775C11.6857 32.5777 11.6077 32.484 11.4561 32.3374C11.3518 32.1362 11.3047 31.9413 11.2682 31.7204C11.2498 31.6145 11.2312 31.5088 11.2124 31.403C11.2079 31.3713 11.2034 31.3396 11.1987 31.307C11.1773 31.2323 11.1773 31.2323 11.0942 31.2052C10.9361 31.1196 10.8983 30.9583 10.8467 30.7936C10.8083 30.6026 10.7837 30.4107 10.7604 30.2172C10.7478 30.1168 10.735 30.0163 10.722 29.9159C10.7167 29.8718 10.7113 29.8278 10.7058 29.7824C10.6706 29.5763 10.6017 29.4016 10.5014 29.2194C10.2593 28.743 10.2705 28.1738 10.2678 27.6503C10.267 27.6075 10.2662 27.5647 10.2653 27.5206C10.2633 27.1346 10.2633 27.1346 10.3999 26.9749C10.4801 26.905 10.5472 26.859 10.6462 26.82C10.7365 26.7741 10.7365 26.7741 10.7833 26.6549C10.8542 26.5132 10.9185 26.452 11.0499 26.3655C11.1035 26.3521 11.1571 26.3387 11.2124 26.3249C11.2124 26.1104 11.2124 25.8959 11.2124 25.6749C11.1319 25.648 11.0515 25.6212 10.9686 25.5936C10.8676 25.488 10.7852 25.3959 10.7274 25.261C10.661 25.1478 10.5569 25.1201 10.4405 25.0655C10.3403 24.9826 10.3204 24.9489 10.278 24.8217C10.1708 23.1432 10.1708 23.1432 10.5827 22.6339C10.7788 22.3534 10.7589 21.8823 10.7931 21.5506C10.8226 21.3 10.8637 21.0526 11.0092 20.8405C11.0369 20.8274 11.0646 20.8142 11.0931 20.8007C11.1787 20.7665 11.1787 20.7665 11.2025 20.6812C11.2074 20.6499 11.2124 20.6187 11.2174 20.5864C11.2235 20.5517 11.2296 20.5169 11.2358 20.4811C11.2415 20.4447 11.2472 20.4083 11.253 20.3708C11.3577 19.7168 11.3577 19.7168 11.6021 19.4783C11.734 19.343 11.7594 19.2131 11.8014 19.0327C11.8583 18.7886 11.9113 18.655 12.1061 18.4842C12.2579 18.3128 12.3035 18.1065 12.3711 17.8915C12.4373 17.7387 12.5057 17.6547 12.6342 17.5499C12.6745 17.5499 12.7147 17.5499 12.7561 17.5499C12.7616 17.5218 12.7671 17.4938 12.7728 17.465C12.8468 17.1419 12.9777 16.9058 13.2239 16.6812C13.308 16.5896 13.3578 16.4863 13.4163 16.3768C13.5224 16.1897 13.6068 16.0826 13.7895 15.9741C13.8916 15.895 13.928 15.7885 13.9793 15.6727C14.0457 15.5391 14.1493 15.4916 14.2795 15.4297C14.388 15.3511 14.4042 15.3173 14.4547 15.1987C14.5325 15.0249 14.6264 14.9715 14.7897 14.8827C14.8817 14.8189 14.9171 14.7607 14.9702 14.6629C15.0609 14.4983 15.1502 14.4569 15.3195 14.386C15.4144 14.3301 15.4439 14.2769 15.4958 14.1805C15.5917 14.0043 15.7034 13.9501 15.8798 13.8639C15.9722 13.8083 16.0038 13.7674 16.0569 13.6753C16.1757 13.4828 16.3703 13.4106 16.5685 13.3157C16.7046 13.2392 16.7946 13.1548 16.8999 13.0405C17.0305 12.9136 17.1354 12.8658 17.3087 12.8221C17.5142 12.7666 17.5569 12.6918 17.6717 12.5124C17.831 12.411 18.0045 12.3396 18.1786 12.2677C18.3292 12.2047 18.4306 12.1598 18.5477 12.0426C18.702 11.8884 18.8898 11.8461 19.0939 11.7854C19.3396 11.7096 19.4875 11.651 19.6624 11.4561C19.8622 11.3561 20.0456 11.3135 20.2667 11.2835C20.5235 11.2428 20.6756 11.1777 20.87 10.9985C21.143 10.7901 21.5581 10.7795 21.8891 10.7426C22.215 10.7058 22.4896 10.6614 22.7803 10.5014C23.2567 10.2593 23.8259 10.2705 24.3495 10.2678ZM32.385 18.4606C32.3387 18.5346 32.3387 18.5346 32.3009 18.614C32.2438 18.7075 32.1903 18.73 32.0911 18.7737C31.9385 18.841 31.8641 18.9132 31.7686 19.053C31.6819 19.1714 31.6172 19.2492 31.4919 19.3272C31.3414 19.4334 31.2565 19.5523 31.148 19.699C31.0585 19.808 30.9514 19.8694 30.8342 19.9467C30.792 19.9996 30.7514 20.0539 30.7124 20.1092C30.6341 20.22 30.5869 20.2741 30.4712 20.3504C30.3486 20.433 30.2912 20.5 30.2045 20.617C30.09 20.7718 29.9791 20.8554 29.8186 20.9624C29.7696 21.022 29.7224 21.0831 29.6764 21.1452C29.5618 21.3 29.451 21.3835 29.2905 21.4905C29.2415 21.5502 29.1942 21.6113 29.1483 21.6733C29.0337 21.8281 28.9229 21.9116 28.7624 22.0186C28.6875 22.1098 28.6181 22.2042 28.548 22.299C28.4585 22.408 28.3514 22.4694 28.2342 22.5467C28.192 22.5996 28.1514 22.6539 28.1124 22.7092C28.0341 22.82 27.9869 22.8741 27.8712 22.9504C27.7486 23.033 27.6912 23.1 27.6046 23.217C27.49 23.3718 27.3791 23.4554 27.2186 23.5624C27.1734 23.6233 27.1295 23.6852 27.0866 23.7477C26.9596 23.914 26.8647 23.9857 26.6613 24.0334C26.4447 24.0602 26.2269 24.0686 26.0088 24.0716C25.7028 24.0787 25.4928 24.1449 25.2585 24.352C25.1179 24.4684 25.0023 24.5218 24.8268 24.5704C24.6696 24.6175 24.6696 24.6175 24.5761 24.7422C24.5599 24.8108 24.5454 24.8798 24.5323 24.949C24.4725 25.1448 24.3383 25.2884 24.2108 25.4448C24.0212 25.7023 24.0626 26.0736 24.103 26.379C24.1427 26.5403 24.2161 26.6197 24.3342 26.7311C24.4506 26.891 24.5355 27.0398 24.5856 27.2313C24.6101 27.3141 24.6101 27.3141 24.6592 27.3811C24.7569 27.4242 24.852 27.4457 24.9561 27.4689C25.113 27.5178 25.216 27.6098 25.3376 27.7175C25.5889 27.9052 25.8103 27.9255 26.1141 27.9295C26.8153 27.9528 26.8153 27.9528 27.0282 28.1657C27.0508 28.2017 27.0734 28.2377 27.0967 28.2749C27.1979 28.4053 27.2795 28.5056 27.4192 28.5948C27.5588 28.6917 27.6297 28.7929 27.7264 28.9299C27.7891 29.0162 27.7891 29.0162 27.9092 29.0874C28.0252 29.1646 28.0704 29.215 28.1479 29.326C28.2559 29.4795 28.374 29.5728 28.5267 29.6794C28.5999 29.7374 28.5999 29.7374 28.6786 29.8567C28.7796 30.0068 28.898 30.0885 29.0423 30.195C29.1514 30.2847 29.2151 30.3908 29.2905 30.5092C29.3877 30.5797 29.3877 30.5797 29.4936 30.6311C29.6327 30.7024 29.6882 30.7376 29.7655 30.8768C29.8496 31.0094 29.8496 31.0094 29.9998 31.0334C30.2981 31.049 30.2981 31.049 30.5527 30.9201C30.6122 30.8248 30.6122 30.8248 30.6606 30.7233C30.742 30.5783 30.8487 30.5367 30.9967 30.4686C31.0433 30.1087 31.0433 30.1087 30.9391 29.785C30.8651 29.7387 30.8651 29.7387 30.7857 29.7009C30.6922 29.6438 30.6697 29.5903 30.626 29.4911C30.5587 29.3385 30.4865 29.2641 30.3467 29.1686C30.2283 29.0819 30.1505 29.0172 30.0725 28.8919C29.9663 28.7414 29.8474 28.6565 29.7007 28.548C29.5918 28.4585 29.5303 28.3514 29.453 28.2342C29.4001 28.192 29.3458 28.1514 29.2905 28.1124C29.1797 28.0341 29.1256 27.9869 29.0493 27.8712C28.9668 27.7486 28.8997 27.6912 28.7827 27.6045C28.6279 27.49 28.5444 27.3791 28.4374 27.2186C28.3462 27.1511 28.254 27.0878 28.1579 27.0275C27.9068 26.7556 27.931 26.3476 27.9346 25.9999C27.9342 25.9547 27.9337 25.9096 27.9332 25.8631C27.9343 25.5557 27.9365 25.2007 28.1657 24.9715C28.2017 24.9489 28.2377 24.9263 28.2749 24.903C28.4053 24.8018 28.5056 24.7202 28.5948 24.5805C28.6917 24.4409 28.7929 24.37 28.9299 24.2733C29.0162 24.2106 29.0162 24.2106 29.0874 24.0905C29.1646 23.9746 29.215 23.9293 29.326 23.8518C29.4795 23.7438 29.5728 23.6257 29.6794 23.473C29.7374 23.3999 29.7374 23.3999 29.8567 23.3212C29.9792 23.2386 30.0367 23.1716 30.1233 23.0545C30.2379 22.8998 30.3487 22.8162 30.5092 22.7092C30.5582 22.6496 30.6055 22.5885 30.6514 22.5264C30.766 22.3716 30.8769 22.2881 31.0374 22.1811C31.1122 22.0899 31.1816 21.9955 31.2518 21.9007C31.3412 21.7918 31.4483 21.7303 31.5655 21.653C31.6078 21.6001 31.6483 21.5458 31.6874 21.4905C31.7656 21.3797 31.8128 21.3256 31.9286 21.2493C32.0511 21.1668 32.1086 21.0997 32.1952 20.9827C32.3098 20.8279 32.4206 20.7444 32.5811 20.6374C32.6558 20.5463 32.7251 20.4521 32.795 20.3574C32.8847 20.2484 32.9908 20.1846 33.1092 20.1092C33.1744 20.0161 33.2218 19.9311 33.2616 19.8249C33.3124 19.7436 33.3124 19.7436 33.3806 19.7098C33.4764 19.6615 33.5301 19.6256 33.5967 19.5405C33.6449 19.326 33.6464 19.143 33.5967 18.9311C33.5119 18.8384 33.4354 18.7945 33.3233 18.7391C33.1783 18.6577 33.1367 18.5511 33.0686 18.403C32.7087 18.3564 32.7087 18.3564 32.385 18.4606Z" fill="#DAC0AD"/>
<path d="M16.2907 1.89862C16.3779 1.89853 16.4652 1.8984 16.5524 1.89823C16.7915 1.8979 17.0305 1.89806 17.2696 1.89832C17.5277 1.8985 17.7857 1.89822 18.0438 1.89799C18.5199 1.89765 18.996 1.89768 19.4721 1.8979C19.912 1.89811 20.3518 1.89816 20.7916 1.89806C20.8208 1.89806 20.85 1.89805 20.8801 1.89805C20.9986 1.89802 21.1172 1.89799 21.2357 1.89797C22.3471 1.89772 23.4584 1.89794 24.5698 1.89838C25.5569 1.89877 26.544 1.89873 27.531 1.89834C28.6405 1.89791 29.7499 1.89774 30.8593 1.89799C30.9776 1.89801 31.0959 1.89804 31.2142 1.89806C31.2579 1.89807 31.2579 1.89807 31.3025 1.89808C31.742 1.89818 32.1816 1.89807 32.6211 1.89786C33.121 1.89763 33.6208 1.8977 34.1207 1.89813C34.3757 1.89834 34.6307 1.89843 34.8857 1.89816C35.1192 1.89792 35.3527 1.89805 35.5861 1.89848C35.6706 1.89857 35.755 1.89853 35.8395 1.89833C35.9543 1.89808 36.0692 1.89834 36.184 1.89871C36.2167 1.89852 36.2494 1.89833 36.2831 1.89814C36.6616 1.90061 36.9973 1.9456 37.2787 2.21362C37.3106 2.24714 37.3424 2.28066 37.3752 2.31519C37.4065 2.34221 37.4065 2.34221 37.4384 2.36978C37.6192 2.57698 37.6231 2.94532 37.6605 3.20986C37.7128 3.58164 37.7128 3.58164 37.8424 3.93257C38.1288 4.56382 38.088 5.35252 38.1173 6.03451C38.1484 6.83511 38.1484 6.83511 38.3816 7.59411C38.5956 8.12743 38.5875 8.74976 38.6193 9.31538C38.6267 9.43972 38.6342 9.56405 38.6417 9.68838C38.6463 9.76497 38.6508 9.84157 38.6551 9.91818C38.67 10.174 38.6913 10.4289 38.7158 10.6839C38.7472 10.6897 38.7786 10.6956 38.8109 10.7016C38.9429 10.7297 39.0158 10.7619 39.1221 10.8464C39.1484 10.8989 39.1728 10.9524 39.1957 11.0064C39.2733 11.1788 39.3556 11.2177 39.5252 11.2884C39.6557 11.3588 39.7319 11.4661 39.824 11.5801C39.8921 11.6568 39.9551 11.7057 40.0412 11.7605C40.184 11.8543 40.2473 11.9654 40.3307 12.1118C40.4065 12.2241 40.5112 12.2792 40.6252 12.3496C40.7496 12.4807 40.8077 12.5755 40.8283 12.7558C40.8723 12.7583 40.8723 12.7583 40.9172 12.7609C41.0728 12.8093 41.1511 12.9055 41.2346 13.0402C41.2472 13.0829 41.2597 13.1257 41.2727 13.1697C41.3316 13.3258 41.4116 13.3377 41.5596 13.4058C41.6688 13.5181 41.7213 13.6068 41.7779 13.7537C41.8319 13.9003 41.8319 13.9003 41.9601 13.9663C42.1106 14.0719 42.1618 14.1649 42.2451 14.3275C42.3432 14.5127 42.4402 14.6661 42.5879 14.8175C42.7073 14.9418 42.7591 15.0306 42.7986 15.1984C42.8376 15.3637 42.8815 15.429 43.017 15.531C43.2585 15.7169 43.3465 16.0119 43.4074 16.303C43.4231 16.3828 43.4231 16.3828 43.5223 16.4222C43.759 16.5763 43.8042 16.8516 43.8701 17.1103C43.9358 17.355 44.0041 17.4308 44.2002 17.5902C44.291 17.804 44.3433 18.029 44.3925 18.2554C44.4593 18.5618 44.4593 18.5618 44.6877 18.7683C44.816 19.0107 44.855 19.2612 44.8984 19.53C44.9057 19.5723 44.9128 19.6146 44.9203 19.6581C44.9721 19.9674 44.9721 19.9674 44.9721 20.1089C44.9971 20.1195 45.0221 20.1301 45.0479 20.141C45.1937 20.2238 45.2426 20.3638 45.2971 20.5152C45.3537 20.7408 45.3759 20.9707 45.3969 21.2018C45.4002 21.2372 45.4034 21.2726 45.4068 21.309C45.4131 21.3789 45.4189 21.4489 45.4241 21.5189C45.4497 21.8146 45.5167 22.0798 45.6703 22.3357C45.744 22.4652 45.744 22.4652 45.744 22.6277C45.8739 22.6657 45.9937 22.6749 46.1288 22.6783C46.1721 22.6796 46.2153 22.681 46.2599 22.6824C46.3499 22.6848 46.4398 22.6871 46.5297 22.6893C47.0072 22.7045 47.3843 22.7257 47.7346 23.0746C48.1584 23.5613 48.0251 24.4021 48.0244 25.0119C48.0244 25.0914 48.0244 25.1708 48.0245 25.2503C48.0245 25.4158 48.0244 25.5814 48.0243 25.7469C48.024 25.9572 48.0242 26.1675 48.0244 26.3778C48.0245 26.5417 48.0245 26.7055 48.0244 26.8693C48.0244 26.9468 48.0244 27.0242 48.0245 27.1017C48.0248 27.4638 48.0234 27.8257 48.0059 28.1874C48.0025 28.2616 48.0025 28.2616 47.9989 28.3373C47.9597 28.6049 47.8529 28.7878 47.6584 28.9779C47.6242 29.0121 47.5899 29.0463 47.5546 29.0815C47.2124 29.366 46.6866 29.3017 46.2659 29.3148C46.2221 29.3163 46.1782 29.3178 46.1331 29.3194C46.0736 29.3212 46.0736 29.3212 46.013 29.3231C45.918 29.33 45.8351 29.3448 45.744 29.3714C45.7414 29.4041 45.7389 29.4368 45.7363 29.4705C45.7059 29.6038 45.6744 29.6696 45.6043 29.7828C45.4285 30.0884 45.4223 30.4275 45.3909 30.7719C45.314 31.6006 45.314 31.6006 45.0949 31.8096C44.9266 32 44.9143 32.2113 44.8858 32.4564C44.8023 33.1266 44.8023 33.1266 44.5406 33.3708C44.4075 33.5137 44.3916 33.6466 44.3602 33.8351C44.3167 34.0861 44.2634 34.2775 44.119 34.4902C44.0072 34.5486 44.0072 34.5486 43.9158 34.5714C43.9125 34.615 43.9091 34.6586 43.9057 34.7035C43.8734 34.9485 43.8306 35.2711 43.6459 35.4479C43.6219 35.4645 43.5978 35.4811 43.5731 35.4982C43.3743 35.6393 43.3399 35.8648 43.2795 36.0885C43.2068 36.2874 43.1096 36.4193 42.9335 36.543C42.8326 36.6244 42.8124 36.7038 42.7733 36.8261C42.7299 36.9595 42.6943 37.0537 42.6158 37.1714C42.589 37.1714 42.5622 37.1714 42.5346 37.1714C42.5078 37.2251 42.481 37.2787 42.4533 37.3339C42.4265 37.3339 42.3997 37.3339 42.3721 37.3339C42.3629 37.3666 42.3536 37.3993 42.3442 37.433C42.2556 37.6735 42.1678 37.9055 41.943 38.0449C41.7865 38.142 41.7397 38.2575 41.6783 38.4273C41.6374 38.5199 41.5968 38.57 41.519 38.6339C41.4854 38.6432 41.4519 38.6524 41.4174 38.6619C41.297 38.725 41.2967 38.746 41.2574 38.8701C41.1971 39.0593 41.1146 39.1337 40.9502 39.2433C40.91 39.2433 40.8698 39.2433 40.8283 39.2433C40.8191 39.2785 40.8099 39.3137 40.8004 39.35C40.7259 39.5415 40.6249 39.6863 40.4424 39.7867C40.3346 39.8567 40.3086 39.8985 40.2469 40.0076C40.1528 40.1698 40.0462 40.2552 39.893 40.3602C39.8098 40.4237 39.7526 40.489 39.6883 40.5712C39.6052 40.6752 39.5445 40.7247 39.4192 40.7693C39.2496 40.8429 39.2381 40.9076 39.1627 41.0714C39.0317 41.2155 38.908 41.2849 38.7158 41.3152C38.7138 41.3449 38.7118 41.3747 38.7097 41.4053C38.7053 41.4685 38.7053 41.4685 38.7009 41.5329C38.6977 41.5802 38.6944 41.6276 38.6911 41.6763C38.6838 41.782 38.6765 41.8877 38.6691 41.9934C38.6503 42.2629 38.632 42.5323 38.6154 42.802C38.5357 44.0637 38.5357 44.0637 38.3274 44.5246C38.1171 44.9902 38.1349 45.5545 38.1132 46.0587C38.0439 47.6241 38.0439 47.6241 37.7895 48.219C37.6831 48.4781 37.651 48.7421 37.6236 49.0195C37.5852 49.3712 37.4663 49.6253 37.2067 49.8679C36.9054 50.1075 36.5208 50.0963 36.1547 50.0954C36.101 50.0955 36.101 50.0955 36.0463 50.0956C35.9266 50.0958 35.8068 50.0957 35.6871 50.0956C35.6003 50.0957 35.5136 50.0958 35.4268 50.0959C35.1885 50.0961 34.9501 50.0961 34.7118 50.0961C34.4547 50.0961 34.1977 50.0963 33.9406 50.0965C33.437 50.0968 32.9334 50.097 32.4297 50.097C32.0204 50.097 31.6111 50.0971 31.2018 50.0972C31.0839 50.0972 30.9661 50.0973 30.8482 50.0973C30.8189 50.0973 30.7896 50.0973 30.7594 50.0973C29.9354 50.0976 29.1113 50.0978 28.2873 50.0977C28.2562 50.0977 28.2251 50.0977 28.1931 50.0977C28.0357 50.0977 27.8783 50.0977 27.7208 50.0977C27.6895 50.0977 27.6583 50.0977 27.6261 50.0977C27.5628 50.0977 27.4996 50.0977 27.4364 50.0977C26.4526 50.0977 25.4688 50.098 24.4851 50.0985C23.3796 50.0992 22.2741 50.0995 21.1686 50.0995C21.0507 50.0995 20.9328 50.0995 20.8149 50.0995C20.7714 50.0995 20.7714 50.0995 20.727 50.0995C20.26 50.0995 19.7931 50.0997 19.3261 50.1001C18.8568 50.1004 18.3875 50.1005 17.9181 50.1002C17.6639 50.1001 17.4097 50.1001 17.1555 50.1004C16.9227 50.1007 16.69 50.1007 16.4572 50.1003C16.373 50.1003 16.2889 50.1003 16.2047 50.1006C15.0852 50.1034 15.0852 50.1034 14.7877 49.8464C14.5554 49.6116 14.4297 49.4213 14.3843 49.0892C14.378 49.0457 14.3716 49.0021 14.3651 48.9573C14.3524 48.8669 14.3399 48.7764 14.3277 48.6859C14.2918 48.4426 14.2422 48.2377 14.1344 48.0165C13.8414 47.3931 13.9005 46.5165 13.8736 45.8423C13.8437 45.1083 13.8437 45.1083 13.6217 44.4129C13.4071 43.8754 13.4131 43.2536 13.3811 42.6837C13.3737 42.5594 13.3662 42.4351 13.3587 42.3107C13.3541 42.2341 13.3496 42.1576 13.3453 42.0809C13.3304 41.8251 13.3091 41.5703 13.2846 41.3152C13.2537 41.3104 13.2229 41.3057 13.1911 41.3007C13.0096 41.2574 12.8822 41.1403 12.7818 40.9851C12.7565 40.9089 12.7565 40.9089 12.7565 40.7871C12.7213 40.7845 12.6861 40.782 12.6498 40.7794C12.4769 40.7378 12.3954 40.6669 12.269 40.5433C12.2514 40.5106 12.2338 40.478 12.2156 40.4443C12.1409 40.3307 12.0808 40.2922 11.9668 40.2209C11.8018 40.1169 11.7238 40.0184 11.619 39.8527C11.5642 39.8032 11.5083 39.755 11.4514 39.708C11.3275 39.6036 11.249 39.5286 11.2127 39.3652C11.2127 39.325 11.2127 39.2848 11.2127 39.2433C11.1691 39.2341 11.1256 39.2249 11.0807 39.2154C10.9086 39.1552 10.8598 39.1121 10.7658 38.9589C10.7541 38.917 10.7424 38.8751 10.7303 38.832C10.6687 38.6746 10.5909 38.6624 10.4408 38.5933C10.3316 38.481 10.2791 38.3923 10.2225 38.2455C10.1688 38.099 10.1688 38.099 10.0417 38.0357C9.87959 37.9196 9.82002 37.8009 9.73243 37.6259C9.61729 37.407 9.51132 37.2417 9.32301 37.0784C9.21931 36.9589 9.18897 36.8097 9.14194 36.6609C9.08271 36.5206 8.98317 36.4788 8.85646 36.3996C8.71028 36.1589 8.6127 35.8678 8.6127 35.5871C8.58254 35.5778 8.55238 35.5686 8.5213 35.5591C8.36596 35.485 8.28134 35.3848 8.21453 35.2247C8.17361 35.1057 8.13638 34.9859 8.09989 34.8655C8.03354 34.6612 7.95477 34.5618 7.8002 34.4089C7.67153 34.1668 7.64273 33.8986 7.61168 33.6301C7.5991 33.53 7.5991 33.53 7.55646 33.3933C7.48943 33.3646 7.42162 33.3376 7.35333 33.3121C7.16034 33.014 7.12553 32.6831 7.06983 32.338C7.02847 32.0684 7.02847 32.0684 6.88725 31.8435C6.60428 31.5243 6.61982 31.0238 6.58133 30.6177C6.54647 30.2581 6.47499 29.9742 6.3123 29.6514C6.23775 29.4946 6.20513 29.347 6.18282 29.1759C6.17845 29.1489 6.17408 29.1218 6.16957 29.094C6.07503 28.4624 6.08734 27.8182 6.08713 27.1815C6.087 27.0882 6.08686 26.9949 6.08672 26.9016C6.08648 26.7069 6.0864 26.5121 6.08643 26.3174C6.08643 26.0707 6.08588 25.8239 6.08518 25.5772C6.08472 25.3847 6.08464 25.1921 6.08466 24.9996C6.08462 24.9088 6.08444 24.818 6.08412 24.7272C6.07773 22.7187 6.07773 22.7187 6.34299 22.2647C6.53688 21.9279 6.56234 21.58 6.60431 21.2007C6.61535 21.1024 6.62664 21.0042 6.63866 20.906C6.64608 20.8454 6.65295 20.7847 6.65916 20.7239C6.68769 20.4894 6.75749 20.2561 6.93001 20.0865C7.01916 19.9956 7.02403 19.899 7.04721 19.7755C7.05709 19.7257 7.06696 19.6759 7.07713 19.6245C7.09698 19.5197 7.11676 19.4149 7.13648 19.31C7.1464 19.26 7.15633 19.21 7.16655 19.1585C7.17514 19.1129 7.18372 19.0673 7.19257 19.0203C7.24701 18.8381 7.33223 18.6973 7.47949 18.576C7.62221 18.4053 7.63244 18.1693 7.67032 17.9547C7.72186 17.7029 7.79847 17.5685 7.97668 17.3849C8.08588 17.2565 8.12386 17.113 8.16837 16.9529C8.23983 16.6966 8.30669 16.5634 8.53146 16.4121C8.55827 16.4121 8.58508 16.4121 8.6127 16.4121C8.61606 16.3677 8.61941 16.3232 8.62286 16.2775C8.65715 16.0103 8.72375 15.73 8.91993 15.5386C8.95261 15.5185 8.98529 15.4984 9.01895 15.4777C9.12556 15.3875 9.15967 15.3173 9.19415 15.1832C9.26316 14.959 9.39151 14.8062 9.5666 14.6533C9.68661 14.5185 9.75231 14.3441 9.83098 14.1829C9.92311 14.0396 10.0152 13.985 10.1565 13.8933C10.2228 13.795 10.2228 13.795 10.2656 13.6876C10.323 13.5565 10.3693 13.4567 10.4815 13.3652C10.5141 13.3568 10.5468 13.3484 10.5805 13.3398C10.7275 13.2609 10.7477 13.1553 10.808 13.0048C10.8569 12.8966 10.9027 12.8483 11.0096 12.7964C11.1213 12.7685 11.1213 12.7685 11.2127 12.7558C11.2144 12.7215 11.2161 12.6871 11.2178 12.6517C11.2857 12.3848 11.5103 12.2144 11.7002 12.0246C11.7245 11.991 11.7488 11.9575 11.7738 11.923C11.8574 11.8275 11.9175 11.7847 12.0252 11.7224C12.1825 11.6301 12.2518 11.5288 12.3502 11.3746C12.4722 11.2824 12.571 11.2197 12.7158 11.1714C12.7661 11.1011 12.7661 11.1011 12.8098 11.0166C12.9076 10.8519 12.9932 10.7724 13.1627 10.6839C13.2029 10.6839 13.2431 10.6839 13.2846 10.6839C13.2876 10.6393 13.2876 10.6393 13.2907 10.5938C13.2936 10.5517 13.2965 10.5096 13.2995 10.4662C13.3044 10.3952 13.3044 10.3952 13.3093 10.3228C13.3166 10.2171 13.3239 10.1114 13.3313 10.0057C13.3502 9.73626 13.3684 9.46678 13.385 9.19716C13.4647 7.93547 13.4647 7.93547 13.6731 7.47456C13.8834 7.00891 13.8655 6.4446 13.8872 5.94033C13.9075 5.47972 13.9302 5.01965 13.9904 4.56226C13.9946 4.52887 13.9987 4.49547 14.003 4.46107C14.0386 4.21667 14.1226 4.00407 14.219 3.77769C14.3176 3.52496 14.3402 3.2648 14.372 2.99716C14.4209 2.62077 14.5283 2.33184 14.8309 2.08413C15.2388 1.8182 15.8245 1.89753 16.2907 1.89862ZM24.5885 8.51812C24.5485 8.52028 24.5085 8.52244 24.4672 8.52466C24.2049 8.5457 23.997 8.62024 23.7573 8.72704C23.6071 8.79002 23.4645 8.81968 23.3037 8.84058C23.2726 8.84513 23.2415 8.84968 23.2094 8.85437C22.8321 8.90684 22.452 8.94045 22.0725 8.97406C21.5811 9.01704 21.5811 9.01704 21.1658 9.26206C20.8852 9.4061 20.5923 9.43797 20.2832 9.48391C19.9938 9.52491 19.9938 9.52491 19.744 9.66831C19.744 9.69512 19.744 9.72194 19.744 9.74956C19.6764 9.77701 19.6086 9.80397 19.5408 9.83081C19.4931 9.85008 19.4453 9.86935 19.3961 9.88921C19.2159 9.95737 19.0313 9.99892 18.8434 10.0403C18.6667 10.0929 18.5493 10.1745 18.4133 10.2983C18.2654 10.4247 18.103 10.465 17.9184 10.5164C17.6687 10.5919 17.5036 10.6521 17.3376 10.8606C17.2365 10.9551 17.1295 10.9847 16.9992 11.0292C16.7859 11.103 16.6878 11.1655 16.5585 11.3458C16.4018 11.5141 16.1485 11.5818 15.9363 11.6581C15.8126 11.7136 15.7792 11.7824 15.7221 11.9027C15.7221 11.9295 15.7221 11.9563 15.7221 11.9839C15.6946 11.9904 15.6672 11.9968 15.6389 12.0035C15.411 12.0631 15.2853 12.1037 15.1533 12.3089C15.0499 12.4205 14.9576 12.5074 14.8283 12.5882C14.7174 12.6668 14.683 12.7026 14.615 12.8117C14.506 12.9783 14.3613 13.0481 14.1902 13.1429C14.0666 13.2223 14.0102 13.3222 13.9346 13.4464C13.8539 13.5014 13.7726 13.5555 13.6908 13.6089C13.6212 13.6885 13.5534 13.7698 13.4877 13.8527C13.4034 13.9397 13.3167 14.0233 13.2287 14.1066C13.1203 14.2202 13.0329 14.3382 12.9443 14.4675C12.8783 14.5433 12.8783 14.5433 12.7763 14.6019C12.6578 14.6761 12.6237 14.7373 12.5609 14.8607C12.4766 15.0121 12.4072 15.1001 12.2613 15.1933C12.0834 15.3106 12.06 15.4334 12.0133 15.6345C11.9846 15.7214 11.9846 15.7214 11.883 15.7824C11.8495 15.7891 11.816 15.7958 11.7815 15.8027C11.6388 15.8978 11.6313 15.9387 11.5809 16.0972C11.5042 16.3193 11.4309 16.506 11.2338 16.6463C11.1106 16.7555 11.0837 16.8376 11.035 16.9935C10.9743 17.1659 10.9323 17.2804 10.7887 17.3947C10.5995 17.5565 10.561 17.7815 10.4927 18.0116C10.4242 18.2327 10.3453 18.3734 10.1782 18.5368C10.0392 18.6906 10.0112 18.8995 9.96412 19.0959C9.94872 19.16 9.94872 19.16 9.93302 19.2253C9.92422 19.2649 9.91542 19.3045 9.90636 19.3453C9.87013 19.4654 9.81606 19.556 9.75021 19.6621C9.75021 19.6889 9.75021 19.7157 9.75021 19.7433C9.71195 19.7549 9.71195 19.7549 9.67292 19.7668C9.57533 19.8201 9.57533 19.8201 9.54946 19.9458C9.54113 19.9963 9.53281 20.0468 9.52423 20.0988C9.51436 20.1541 9.50447 20.2093 9.49455 20.2646C9.48496 20.3211 9.47539 20.3775 9.46583 20.4339C9.40611 20.7719 9.35145 21.0517 9.14083 21.3277C9.05922 21.4501 9.04566 21.497 9.02927 21.6376C9.02467 21.6758 9.02007 21.714 9.01533 21.7533C9.01066 21.7947 9.00599 21.836 9.00118 21.8787C8.99599 21.9216 8.9908 21.9646 8.98545 22.0089C8.95781 22.2399 8.93278 22.471 8.90993 22.7026C8.78701 23.9159 8.78701 23.9159 8.57208 24.1308C8.42323 25.1891 8.45539 26.3039 8.5213 27.3681C8.5238 27.4137 8.5263 27.4592 8.52888 27.5061C8.54652 27.7444 8.58763 27.9244 8.69242 28.1382C8.88681 28.5796 8.89726 29.0951 8.94024 29.5695C8.95 29.676 8.95986 29.7826 8.97005 29.8891C8.97633 29.9548 8.98236 30.0205 8.9881 30.0862C9.01653 30.3851 9.06771 30.5976 9.26271 30.8339C9.38809 31.0785 9.42692 31.3231 9.46837 31.5931C9.4813 31.6763 9.49446 31.7594 9.50788 31.8424C9.51349 31.8789 9.5191 31.9154 9.52487 31.953C9.56018 32.1115 9.60605 32.1952 9.72735 32.3041C9.93773 32.535 9.97472 32.8599 10.0409 33.1578C10.0939 33.3334 10.1755 33.4509 10.2988 33.5861C10.4464 33.7587 10.4877 33.9686 10.5458 34.1837C10.6148 34.4157 10.692 34.5108 10.8877 34.6527C10.9543 34.7612 11.0001 34.862 11.0339 34.9847C11.0831 35.1604 11.1199 35.2675 11.2686 35.3789C11.4909 35.5467 11.5692 35.8091 11.6578 36.0649C11.6938 36.1684 11.6938 36.1684 11.817 36.2066C11.9806 36.2982 12 36.3845 12.0661 36.5535C12.123 36.6801 12.2062 36.7556 12.3096 36.8464C12.434 36.9615 12.5273 37.0689 12.6117 37.2146C12.6812 37.3312 12.7153 37.3742 12.8326 37.4507C12.9919 37.559 13.0691 37.6866 13.1705 37.8483C13.2523 37.9541 13.3319 37.9995 13.4471 38.0652C13.5017 38.1462 13.5558 38.2274 13.6096 38.3089C13.6892 38.3786 13.7704 38.4464 13.8533 38.5121C13.9409 38.597 14.0245 38.684 14.1072 38.7736C14.2004 38.8604 14.2757 38.914 14.384 38.9767C14.5006 39.0462 14.5436 39.0803 14.6201 39.1976C14.7289 39.3576 14.8588 39.4332 15.0186 39.5386C15.1127 39.6089 15.1127 39.6089 15.1965 39.7384C15.2963 39.8832 15.3931 39.9166 15.5547 39.9763C15.6488 40.0188 15.6973 40.0577 15.7627 40.1371C15.772 40.1635 15.7813 40.1898 15.791 40.217C15.8769 40.3509 16.0209 40.3863 16.1639 40.4417C16.4061 40.5366 16.5586 40.6222 16.7225 40.8302C16.8255 40.9142 16.8877 40.932 17.0145 40.9648C17.2245 41.021 17.3636 41.1143 17.5096 41.2746C17.523 41.3014 17.5364 41.3282 17.5502 41.3558C17.655 41.3921 17.7585 41.4246 17.865 41.4548C18.0621 41.511 18.2305 41.5668 18.4033 41.6808C18.4335 41.6942 18.4637 41.7076 18.4947 41.7214C18.5658 41.7621 18.5658 41.7621 18.6065 41.8839C18.6735 41.9216 18.6735 41.9216 18.7588 41.9449C18.8079 41.96 18.8079 41.96 18.858 41.9755C18.9858 42.0095 19.1144 42.0368 19.2438 42.0642C19.5068 42.1229 19.6714 42.1814 19.8252 42.4121C19.9507 42.4498 19.9507 42.4498 20.0994 42.473C20.1547 42.4832 20.21 42.4934 20.2653 42.5036C20.2934 42.5087 20.3216 42.5137 20.3506 42.5189C21.1368 42.6598 21.1368 42.6598 21.4047 42.8815C21.7434 43.1122 22.3678 43.0602 22.7639 43.0932C23.6263 43.1707 23.6263 43.1707 23.9964 43.3509C24.2019 43.4499 24.4009 43.4648 24.6266 43.4785C24.6713 43.4815 24.7161 43.4845 24.7622 43.4876C25.6268 43.5388 26.5019 43.5366 27.3662 43.481C27.4065 43.4788 27.4469 43.4767 27.4884 43.4745C27.7525 43.4535 27.9614 43.3797 28.2026 43.2721C28.3528 43.209 28.4953 43.1794 28.6561 43.1585C28.6872 43.154 28.7183 43.1494 28.7504 43.1448C29.1277 43.0923 29.5078 43.0587 29.8873 43.0251C30.311 43.0039 30.311 43.0039 30.6797 42.8234C30.9937 42.5862 31.4091 42.546 31.7893 42.4949C31.837 42.4883 31.837 42.4883 31.8858 42.4816C31.9141 42.4779 31.9425 42.4743 31.9718 42.4705C32.1211 42.4379 32.2025 42.3863 32.3047 42.2724C32.4796 42.1131 32.6729 42.0683 32.9023 42.0234C33.1324 41.9764 33.2842 41.9288 33.46 41.7697C33.6441 41.6056 33.8197 41.5435 34.0516 41.4751C34.2994 41.4018 34.4551 41.346 34.6192 41.1387C34.7592 41.0127 34.9541 40.9762 35.1324 40.9266C35.294 40.8543 35.3305 40.7708 35.4252 40.6246C35.5495 40.5503 35.5495 40.5503 35.6867 40.4925C35.7319 40.473 35.7771 40.4536 35.8237 40.4335C35.9041 40.4008 35.9852 40.3699 36.0673 40.3418C36.1722 40.3033 36.1722 40.3033 36.225 40.1625C36.2973 40.0187 36.366 39.9868 36.517 39.9365C36.7199 39.8676 36.7886 39.7855 36.9026 39.6096C37.0061 39.4819 37.1412 39.4205 37.2835 39.3423C37.4067 39.2639 37.4626 39.1636 37.5377 39.0402C37.6176 38.9841 37.6989 38.9299 37.7815 38.8777C37.8508 38.8117 37.9186 38.7439 37.9846 38.6746C38.0902 38.5662 38.1936 38.4668 38.3121 38.3724C38.4364 38.2732 38.4364 38.2732 38.5178 38.1388C38.594 38.0246 38.594 38.0246 38.67 37.9906C38.8243 37.9062 38.9002 37.7466 38.9962 37.6032C39.0848 37.4923 39.1622 37.4431 39.2846 37.3746C39.3675 37.2623 39.4368 37.1509 39.5004 37.0267C39.5689 36.9278 39.6091 36.8994 39.7086 36.8388C39.8741 36.7303 39.912 36.6022 39.9625 36.4159C40.0291 36.2939 40.1102 36.2674 40.2303 36.2053C40.3594 36.1139 40.3979 35.9751 40.45 35.8308C40.5249 35.6325 40.582 35.4847 40.7471 35.3433C40.8888 35.2182 40.9356 35.1273 40.9832 34.9447C41.0346 34.7764 41.0714 34.6763 41.2092 34.5664C41.3988 34.4033 41.4368 34.1832 41.505 33.9517C41.5647 33.7588 41.6241 33.6267 41.7652 33.4771C41.9549 33.2708 42.0013 33.0423 42.0584 32.7747C42.1087 32.5438 42.17 32.3581 42.3568 32.2C42.4922 32.04 42.5042 31.7595 42.5362 31.5554C42.6457 30.8603 42.6457 30.8603 42.8647 30.6156C43.0859 30.3058 43.0468 29.7723 43.0779 29.4044C43.1771 28.294 43.1771 28.294 43.3695 27.9631C43.4589 27.7573 43.4631 27.5523 43.4766 27.33C43.4814 27.2556 43.4814 27.2556 43.4863 27.1798C43.5348 26.3463 43.5305 25.5099 43.4791 24.6767C43.4766 24.6309 43.4741 24.585 43.4715 24.5378C43.454 24.2983 43.4136 24.1187 43.308 23.9041C43.1163 23.4571 43.105 22.9262 43.0602 22.4474C43.0504 22.344 43.0405 22.2407 43.0304 22.1373C43.0241 22.0737 43.0181 22.01 43.0123 21.9463C42.9891 21.7099 42.9639 21.4614 42.8012 21.2769C42.6234 21.0388 42.5875 20.7536 42.5389 20.4663C42.5323 20.4285 42.5257 20.3907 42.5189 20.3517C42.5058 20.2756 42.4936 20.1994 42.4821 20.1231C42.4423 19.8887 42.3931 19.7825 42.2096 19.6214C42.0995 19.438 42.0504 19.2539 42.0039 19.0476C41.9487 18.7976 41.9487 18.7976 41.844 18.5652C41.8171 18.5652 41.7903 18.5652 41.7627 18.5652C41.7509 18.5413 41.739 18.5173 41.7268 18.4927C41.6878 18.4153 41.6468 18.3391 41.6053 18.263C41.5295 18.1148 41.4864 17.9665 41.4428 17.806C41.3736 17.5687 41.3112 17.4858 41.1127 17.3464C41.0271 17.207 40.9798 17.0675 40.9324 16.9123C40.8945 16.7935 40.875 16.7431 40.7852 16.6533C40.7088 16.6093 40.7088 16.6093 40.6252 16.6152C40.5794 16.5018 40.5351 16.3882 40.4927 16.2735C40.389 15.9593 40.389 15.9593 40.1529 15.7519C39.9935 15.6692 39.9914 15.6449 39.9371 15.4828C39.8682 15.2799 39.7862 15.2112 39.6102 15.0971C39.4823 14.9936 39.4209 14.8581 39.3425 14.7157C39.2646 14.5931 39.1616 14.5409 39.0408 14.4621C38.9653 14.3611 38.8969 14.2577 38.8299 14.1509C38.7481 14.045 38.6685 13.9996 38.5533 13.9339C38.4988 13.853 38.4446 13.7717 38.3908 13.6902C38.3112 13.6205 38.23 13.5527 38.1471 13.4871C38.0592 13.4019 37.9749 13.3143 37.8906 13.2255C37.8061 13.1449 37.7325 13.0863 37.6367 13.0224C37.5313 12.9504 37.4932 12.912 37.4234 12.799C37.3307 12.6691 37.2707 12.631 37.134 12.5552C36.9949 12.478 36.9072 12.4197 36.8242 12.2835C36.7287 12.1281 36.6125 12.0822 36.4443 12.0214C36.3505 11.9799 36.3027 11.941 36.2377 11.8621C36.2283 11.8355 36.2189 11.809 36.2091 11.7816C36.1243 11.6495 35.9829 11.6184 35.8416 11.565C35.6135 11.4732 35.4694 11.4033 35.3284 11.1968C35.2025 11.0703 35.0219 11.0331 34.8563 10.9759C34.7111 10.9184 34.6314 10.8432 34.5315 10.7246C34.3732 10.6145 34.2155 10.5647 34.0313 10.5113C33.7977 10.4394 33.6407 10.3507 33.4671 10.179C33.2477 9.98763 32.8982 9.96162 32.6227 9.90571C32.4593 9.86 32.3364 9.80879 32.2407 9.66466C32.1427 9.54862 32.046 9.54815 31.8984 9.52358C31.8435 9.51378 31.7886 9.50394 31.7337 9.49407C31.6919 9.4869 31.6919 9.4869 31.6492 9.47959C30.8109 9.33475 30.8109 9.33475 30.6145 9.11694C30.5306 9.04125 30.4738 9.03696 30.3622 9.02466C30.324 9.02018 30.2858 9.01571 30.2464 9.0111C30.1844 9.00462 30.1844 9.00462 30.1211 8.998C30.0782 8.99302 30.0353 8.98804 29.9911 8.98291C29.759 8.9562 29.5267 8.93201 29.2943 8.90802C28.201 8.79277 28.201 8.79277 27.869 8.57144C27.7259 8.54337 27.58 8.53646 27.4348 8.52573C27.3891 8.52234 27.3435 8.51895 27.2965 8.51546C26.3982 8.4569 25.4867 8.4601 24.5885 8.51812Z" fill="#DAC0AD"/>
</svg>
