<svg width="41" height="41" viewBox="0 0 41 41" fill="none" xmlns="http://www.w3.org/2000/svg">
<g clip-path="url(#clip0_495_135)">
<path d="M20.5003 17.083C18.2453 17.083 17.1127 17.8022 15.4932 20.3698L15.0763 21.0498L14.4015 22.2251C14.3208 22.3695 14.2405 22.5141 14.1607 22.659C13.7507 23.4004 13.1852 23.9454 12.2149 24.6099L11.2753 25.2335C9.66945 26.3046 8.82895 27.1434 8.35916 28.5733C8.14733 29.1507 8.02433 30.0305 8.02945 30.7599C8.02945 33.6419 10.076 35.8747 12.8128 35.8747L13.2262 35.8644C13.4295 35.8542 13.626 35.8354 13.831 35.8063L14.2546 35.7329L14.4801 35.685L14.9772 35.5603L15.254 35.4835L16.2277 35.193L17.5312 34.7779L18.3085 34.5456C19.2139 34.2893 19.9143 34.1663 20.5003 34.1663C21.088 34.1663 21.7867 34.291 22.6921 34.5456L23.4694 34.7779L24.7745 35.1913L25.7466 35.4835L26.2796 35.627C26.4453 35.668 26.599 35.7038 26.746 35.7329L27.1696 35.8063C27.3746 35.8354 27.5711 35.8542 27.7744 35.8644L28.1878 35.8747C30.9245 35.8747 32.9711 33.6419 32.9711 30.7497C32.9711 30.0202 32.8464 29.1455 32.6175 28.5186C32.2143 27.2818 31.461 26.4293 30.0892 25.3923L29.6501 25.0678L28.7481 24.4186C27.6514 23.6157 27.0347 23.0075 26.6076 22.2353L26.1463 21.4068L25.7158 20.6688C23.9887 17.7715 22.9517 17.083 20.5003 17.083Z" fill="#FFA88E"/>
<path d="M33.7907 11.958H33.7394C31.657 11.9922 29.7248 13.7791 28.7716 16.2357C27.5928 19.268 28.1771 22.5907 30.6081 23.6379C31.0454 23.8241 31.5083 23.9163 31.9764 23.9163C34.0794 23.9163 36.0423 22.1175 37.004 19.6387C38.176 16.6081 37.5849 13.2837 35.1659 12.2382C34.7316 12.0532 34.2627 11.9579 33.7907 11.958Z" fill="#FFA88E"/>
<path d="M15.4173 5.125C15.226 5.125 15.1012 5.12842 14.956 5.15063L14.7972 5.17796C12.18 5.52987 10.7023 8.57583 11.196 11.7636C11.6607 14.7105 13.6936 17.0833 16.1843 17.0833L16.5038 17.0748C16.5518 17.0707 16.5997 17.065 16.6473 17.0577L16.8045 17.0304C19.4233 16.6785 20.8993 13.6325 20.4056 10.4447C19.9444 7.49446 17.9115 5.125 15.4173 5.125Z" fill="#FFA88E"/>
<path d="M25.5773 5.12501C23.0849 5.12501 21.0554 7.49618 20.5958 10.4431C20.1004 13.6325 21.5764 16.6785 24.3097 17.0492C24.4857 17.0714 24.6514 17.0833 24.8154 17.0833C27.19 17.0833 29.1597 14.9223 29.7303 12.1582L29.8003 11.7653C30.2957 8.57584 28.8197 5.52989 26.0864 5.15918C25.9177 5.13602 25.7476 5.12461 25.5773 5.12501Z" fill="#FFA88E"/>
<path d="M7.20424 11.958C6.73616 11.958 6.27491 12.0503 5.8427 12.233C3.40661 13.2837 2.82407 16.6098 4.00111 19.6387C4.96291 22.1175 6.92236 23.9163 9.02532 23.9163C9.49341 23.9163 9.95466 23.8241 10.3869 23.6413C12.8229 22.5907 13.4055 19.2645 12.2284 16.2357C11.2667 13.7569 9.3072 11.958 7.20424 11.958Z" fill="#FFA88E"/>
</g>
<defs>
<clipPath id="clip0_495_135">
<rect width="41" height="41" fill="white"/>
</clipPath>
</defs>
</svg>
